HIERARCHY
ROOT Hips
{
  OFFSET 0.0 1.0 0.0
  CHANNELS 6 Xposition Yposition Zposition Xrotation Yrotation Zrotation
  JOINT Spine
  {
    OFFSET 0.0 0.5 0.0
    CHANNELS 3 Xrotation Yrotation Zrotation
    End Site
    {
      OFFSET 0.0 0.5 0.0
    }
  }
}
MOTION
Frames: 2
Frame Time: 0.0333333
0.0 1.0 0.0 0.0 0.0 0.0 0.0 45.0 0.0
0.0 1.0 0.0 0.0 0.0 0.0 0.0 -45.0 0.0
